<!-- Created with Inkscape (http://www.inkscape.org/) -->
<svg width="1034.14" height="578.502" version="1.1" viewBox="0 0 1034.14 578.502" xmlns="http://www.w3.org/2000/svg" xmlns:cc="http://creativecommons.org/ns#" xmlns:dc="http://purl.org/dc/elements/1.1/" xmlns:rdf="http://www.w3.org/1999/02/22-rdf-syntax-ns#">
 <metadata>
  <rdf:RDF>
   <cc:Work rdf:about="">
    <dc:format>image/svg+xml</dc:format>
    <dc:type rdf:resource="http://purl.org/dc/dcmitype/StillImage"/>
    <dc:title/>
   </cc:Work>
  </rdf:RDF>
 </metadata>
 <defs>
  <style><![CDATA[
      .sprite { display: none; }
	    .sprite:target { display: inline; }
    ]]></style>
 </defs>
 <g id="MainApp" class="sprite" transform="translate(-.585037 -.838695)">
  <g transform="matrix(.336061 0 0 .336061 -2130.84 932.668)">
   <g>
    <rect x="6344.11" y="-2771.05" width="3073.76" height="305.124" rx="33.7775" ry="29.2151" fill="#f2f2f2" stroke="#919191" stroke-linecap="square" stroke-width="3.4904"/>
    <rect x="6344.11" y="-2618.37" width="3073.6" height="1565.25" fill="#ededed" stroke="#919191" stroke-linecap="square" stroke-width="3.491"/>
    <path d="m9148.4-2732.19v74.7422z" fill="none" stroke="#a7a7a7" stroke-linecap="round" stroke-width="3.24791px"/>
   </g>
   <g transform="matrix(3.24791 0 0 3.24791 9172.71 -5189.21)" fill="#888a85">
    <path d="m45 764h1c0.01037-1.2e-4 0.02079-4.6e-4 0.03125 0 0.254951 0.0112 0.50987 0.12858 0.6875 0.3125l2.28125 2.28125 2.3125-2.28125c0.265625-0.2305 0.446672-0.3055 0.6875-0.3125h1v1c0 0.28647-0.03434 0.55065-0.25 0.75l-2.28125 2.28125 2.25 2.25c0.188188 0.18817 0.281242 0.45345 0.28125 0.71875v1h-1c-0.265301-1e-5 -0.530586-0.0931-0.71875-0.28125l-2.28125-2.28125-2.28125 2.28125c-0.188164 0.18819-0.45346 0.28125-0.71875 0.28125h-1v-1c-3e-6 -0.26529 0.09306-0.53058 0.28125-0.71875l2.28125-2.25-2.28125-2.28125c-0.210742-0.19463-0.30316-0.46925-0.28125-0.75z" color="#bebebe" enable-background="new" fill="#888a85" style="text-decoration-line:none;text-indent:0;text-transform:none"/>
   </g>
   <g>
    <rect x="6366.73" y="-2748.41" width="107.181" height="107.181" rx="9.74372" ry="9.74373" color="#000000" fill="#eaeaea" stroke="#919191" stroke-width="3.24791"/>
    <rect x="9018.48" y="-2748.41" width="107.181" height="107.181" rx="9.74372" ry="9.74373" color="#000000" fill="#eaeaea" stroke="#919191" stroke-width="3.24791"/>
    <rect x="8976.42" y="-2389.63" width="12.9916" height="607.359" rx="6.4958" ry="6.4958" opacity=".3" stroke-width="0"/>
   </g>
   <rect x="9153.21" y="-2720.8" width="51.9665" height="51.9665" color="#bebebe" fill="none"/>
   <g fill="#2e3436">
    <rect x="9055.83" y="-2711.06" width="32.4778" height="6.49651" color="#bebebe"/>
    <path d="m9055.83-2698.07v6.498h32.4785v-6.498z" color="#bebebe"/>
    <rect x="9055.83" y="-2685.08" width="32.4778" height="6.49651" color="#bebebe"/>
   </g>
   <rect x="6394.34" y="-2720.8" width="51.9665" height="51.9665" color="#bebebe" fill="none"/>
   <g transform="matrix(0 -2.97565 2.97565 0 4855.13 -2373.45)" enable-background="new">
    <rect transform="scale(-1,1)" x="-116" y="518" width="16" height="16" color="#bebebe" enable-background="new" fill="none"/>
    <path d="m110.511 519.956h-1c-0.0104-1.2e-4 -0.0208-4.6e-4 -0.0313 0-0.25495 0.0112-0.50987 0.12858-0.6875 0.3125l-5.2812 5.21875 5.28125 5.1875c0.18816 0.18819 0.45346 0.28125 0.71875 0.28125h1v-1c0-0.26529-0.0931-0.53058-0.28125-0.71875l-3.8125-3.75 3.8125-3.78125c0.21074-0.19463 0.30316-0.46925 0.28125-0.75z" color="#bebebe" enable-background="new" fill="#2e3436" style="text-decoration-line:none;text-indent:0;text-transform:none"/>
   </g>
   <g fill="#6f6f6f" font-family="sans-serif" font-size="119.026px" letter-spacing="0px" stroke-width="2.97565px" word-spacing="0px">
    <text x="6358.7095" y="-1081.7872" style="line-height:74.3911972px" xml:space="preserve"><tspan x="6358.7095" y="-1081.7872" fill="#6f6f6f" font-family="Cantarell" font-size="43.6428px" stroke-width="2.97565px" style="font-feature-settings:normal;font-variant-caps:normal;font-variant-ligatures:normal;font-variant-numeric:normal">Focus Mode</tspan></text>
    <text x="6624.2271" y="-1083.1183" style="line-height:74.3911972px" xml:space="preserve"><tspan x="6624.2271" y="-1083.1183" fill="#6f6f6f" font-family="Cantarell" font-size="43.6428px" stroke-width="2.97565px" style="font-feature-settings:normal;font-variant-caps:normal;font-variant-ligatures:normal;font-variant-numeric:normal">Fullscreen</tspan></text>
    <text x="6859.0239" y="-1080.7937" style="line-height:74.3911972px" xml:space="preserve"><tspan x="6859.0239" y="-1080.7937" fill="#6f6f6f" font-family="Cantarell" font-size="43.6428px" stroke-width="2.97565px" style="font-feature-settings:normal;font-variant-caps:normal;font-variant-ligatures:normal;font-variant-numeric:normal">Preview</tspan></text>
   </g>
   <g>
    <path d="m9219.24-2698.07v6.498h32.4785v-6.498z" color="#bebebe" fill="#888a85"/>
    <text x="8644.4072" y="-1080.7937" fill="#6f6f6f" font-family="sans-serif" font-size="119.026px" letter-spacing="0px" stroke-width="2.97565px" word-spacing="0px" style="line-height:74.3911972px" xml:space="preserve"><tspan x="8644.4072" y="-1080.7937" fill="#6f6f6f" font-family="Cantarell" font-size="43.6428px" stroke-width="2.97565px" style="font-feature-settings:normal;font-variant-caps:normal;font-variant-ligatures:normal;font-variant-numeric:normal">Words:  37</tspan></text>
    <text x="8995.5264" y="-1080.7937" fill="#6f6f6f" font-family="sans-serif" font-size="119.026px" letter-spacing="0px" stroke-width="2.97565px" word-spacing="0px" style="line-height:74.3911972px" xml:space="preserve"><tspan x="8995.5264" y="-1080.7937" fill="#6f6f6f" font-family="Cantarell" font-size="43.6428px" stroke-width="2.97565px" style="font-feature-settings:normal;font-variant-caps:normal;font-variant-ligatures:normal;font-variant-numeric:normal">Characters:   4576</tspan></text>
   </g>
   <path transform="translate(-199.429 1598.7)" d="m9148.4-2732.19v74.7422z" fill="none" stroke="#a7a7a7" stroke-linecap="round" stroke-width="3.24791px"/>
  </g>
  <g fill="#000000" letter-spacing="0px" stroke-width="1px" word-spacing="0px">
   <text x="178.98633" y="161.24852" font-family="'Fira Mono'" font-size="21.3333px" font-weight="bold" writing-mode="lr" style="font-feature-settings:normal;font-variant-caps:normal;font-variant-ligatures:normal;font-variant-numeric:normal;line-height:25px" xml:space="preserve"><tspan x="178.98633" y="161.24852" style="font-feature-settings:normal;font-variant-caps:normal;font-variant-ligatures:normal;font-variant-numeric:normal"><tspan x="178.98633" y="161.24852" font-family="'Fira Mono'" font-size="21.3333px" font-weight="bold" writing-mode="lr" style="font-feature-settings:normal;font-variant-caps:normal;font-variant-ligatures:normal;font-variant-numeric:normal">UberWriter helps yout textediting workflow</tspan></tspan><tspan x="178.98633" y="161.24852" style="font-feature-settings:normal;font-variant-caps:normal;font-variant-ligatures:normal;font-variant-numeric:normal"/></text>
   <text x="187.00716" y="164.17882" font-family="'Fira Mono'" font-size="26.6667px" font-weight="500" text-align="end" text-anchor="end" style="font-feature-settings:normal;font-variant-caps:normal;font-variant-ligatures:normal;font-variant-numeric:normal;line-height:25px" xml:space="preserve"><tspan x="202.99673" y="164.17882"><tspan x="187.00716" y="164.17882">#  </tspan></tspan></text>
   <text x="178.98633" y="202.4575" font-family="sans-serif" font-size="40px" style="line-height:25px" xml:space="preserve"><tspan x="178.98633" y="202.4575" font-family="'Fira Mono'" font-size="18.6667px"><tspan x="178.98633" y="202.4575" style="font-feature-settings:normal;font-variant-caps:normal;font-variant-ligatures:normal;font-variant-numeric:normal">It's a simple markdown editor that offers a </tspan><tspan font-weight="bold" style="font-feature-settings:normal;font-variant-caps:normal;font-variant-ligatures:normal;font-variant-numeric:normal">**lot**</tspan><tspan style="font-feature-settings:normal;font-variant-caps:normal;font-variant-ligatures:normal;font-variant-numeric:normal"> of </tspan></tspan><tspan x="178.98633" y="233.6414" font-family="'Fira Mono'" font-size="18.6667px"><tspan x="178.98633" style="font-feature-settings:normal;font-variant-caps:normal;font-variant-ligatures:normal;font-variant-numeric:normal">features.</tspan><tspan dx="11.192711" style="font-feature-settings:normal;font-variant-caps:normal;font-variant-ligatures:normal;font-variant-numeric:normal"/></tspan><tspan x="178.98633" y="264.82529"><tspan x="178.98633" font-family="'Fira Mono'" font-size="18.6667px" style="font-feature-settings:normal;font-variant-caps:normal;font-variant-ligatures:normal;font-variant-numeric:normal"/></tspan><tspan x="178.98633" y="289.82529" font-family="'Fira Mono'" font-size="18.6667px" font-weight="bold"><tspan x="178.98633" style="font-feature-settings:normal;font-variant-caps:normal;font-variant-ligatures:normal;font-variant-numeric:normal">Reasons to install:</tspan><tspan dx="11.192703" style="font-feature-settings:normal;font-variant-caps:normal;font-variant-ligatures:normal;font-variant-numeric:normal"/></tspan><tspan x="178.98633" y="321.00919"><tspan x="178.98633" font-family="'Fira Mono'" font-size="18.6667px" style="font-feature-settings:normal;font-variant-caps:normal;font-variant-ligatures:normal;font-variant-numeric:normal"/></tspan><tspan x="178.98633" y="346.00919" font-family="'Fira Mono'" font-size="18.6667px"><tspan x="178.98633" style="font-feature-settings:normal;font-variant-caps:normal;font-variant-ligatures:normal;font-variant-numeric:normal">Because you love markdown as much as I do</tspan><tspan dx="11.192719" style="font-feature-settings:normal;font-variant-caps:normal;font-variant-ligatures:normal;font-variant-numeric:normal"/></tspan><tspan x="178.98633" y="377.19308" font-family="'Fira Mono'" font-size="18.6667px"><tspan x="178.98633" style="font-feature-settings:normal;font-variant-caps:normal;font-variant-ligatures:normal;font-variant-numeric:normal">Because you like writting in a clutter free environment</tspan><tspan dx="11.192688" style="font-feature-settings:normal;font-variant-caps:normal;font-variant-ligatures:normal;font-variant-numeric:normal"/></tspan><tspan x="178.98633" y="408.37698"><tspan x="178.98633" font-family="'Fira Mono'" font-size="18.6667px" style="font-feature-settings:normal;font-variant-caps:normal;font-variant-ligatures:normal;font-variant-numeric:normal">Because you did not know that you only have always </tspan></tspan><tspan x="178.98633" y="439.56088"><tspan x="178.98633" font-family="'Fira Mono'" font-size="18.6667px" style="font-feature-settings:normal;font-variant-caps:normal;font-variant-ligatures:normal;font-variant-numeric:normal">searched for an editor like this</tspan></tspan></text>
   <text x="139.11584" y="290.90057" font-family="'Fira Mono'" font-size="21.3333px" style="line-height:25px" xml:space="preserve"><tspan x="139.11584" y="290.90057" font-weight="bold" style="font-feature-settings:normal;font-variant-caps:normal;font-variant-ligatures:normal;font-variant-numeric:normal"><tspan x="139.11584" y="290.90057" dx="0 0 0 0 0" font-family="'Fira Mono'" font-size="21.3333px" font-weight="bold" style="font-feature-settings:normal;font-variant-caps:normal;font-variant-ligatures:normal;font-variant-numeric:normal">##  </tspan></tspan><tspan x="139.11584" y="321.34003" font-weight="bold" style="font-feature-settings:normal;font-variant-caps:normal;font-variant-ligatures:normal;font-variant-numeric:normal"/><tspan x="139.11584" y="346.34003" font-weight="bold" style="font-feature-settings:normal;font-variant-caps:normal;font-variant-ligatures:normal;font-variant-numeric:normal"><tspan x="139.11584" y="346.34003" dx="0 0 0 0" font-family="'Fira Mono'" font-size="21.3333px" font-weight="bold" style="font-feature-settings:normal;font-variant-caps:normal;font-variant-ligatures:normal;font-variant-numeric:normal"> <tspan font-weight="normal">1.</tspan></tspan></tspan><tspan x="151.9075" y="376.77945" style="font-feature-settings:normal;font-variant-caps:normal;font-variant-ligatures:normal;font-variant-numeric:normal"><tspan x="151.9075" y="376.77945" dx="0 0 0" font-family="'Fira Mono'" font-size="21.3333px" style="font-feature-settings:normal;font-variant-caps:normal;font-variant-ligatures:normal;font-variant-numeric:normal">2.</tspan></tspan><tspan x="151.9075" y="407.21893" style="font-feature-settings:normal;font-variant-caps:normal;font-variant-ligatures:normal;font-variant-numeric:normal"><tspan x="151.9075" y="407.21893" font-family="'Fira Mono'" font-size="21.3333px" style="font-feature-settings:normal;font-variant-caps:normal;font-variant-ligatures:normal;font-variant-numeric:normal">3.</tspan></tspan></text>
  </g>
  <text x="408.30063" y="33.125252" fill="#2e3436" font-family="sans-serif" font-size="40px" letter-spacing="0px" stroke-width="1px" word-spacing="0px" style="line-height:25px" xml:space="preserve"><tspan x="408.30063" y="33.125252" fill="#2e3436" font-family="Cantarell" font-size="16px" font-weight="bold" style="font-feature-settings:normal;font-variant-caps:normal;font-variant-ligatures:normal;font-variant-numeric:normal">UberWriter.md - UberWriter</tspan></text>
 </g>
 <g id="MainAppDark" class="sprite" transform="translate(-.585037 -.838695)" display="none">
  <g transform="matrix(.336061 0 0 .336061 -2130.84 932.668)">
   <g>
    <g>
     <rect x="6344.11" y="-2771.05" width="3073.76" height="305.124" rx="33.7775" ry="29.2151" display="inline" fill="#2c3133" stroke="#101111" stroke-linecap="square" stroke-width="3.4904"/>
     <rect x="6344.11" y="-2618.37" width="3073.6" height="1565.25" display="inline" fill="#333" stroke="#101111" stroke-linecap="square" stroke-width="3.491"/>
     <path d="m9148.4-2732.19v74.7422z" display="inline" fill="#dadbda" stroke="#a7a7a7" stroke-linecap="round" stroke-width="3.24791px"/>
    </g>
    <g transform="matrix(3.24791 0 0 3.24791 9172.71 -5189.21)" display="inline" fill="#dadbda">
     <path d="m45 764h1c0.01037-1.2e-4 0.02079-4.6e-4 0.03125 0 0.254951 0.0112 0.50987 0.12858 0.6875 0.3125l2.28125 2.28125 2.3125-2.28125c0.265625-0.2305 0.446672-0.3055 0.6875-0.3125h1v1c0 0.28647-0.03434 0.55065-0.25 0.75l-2.28125 2.28125 2.25 2.25c0.188188 0.18817 0.281242 0.45345 0.28125 0.71875v1h-1c-0.265301-1e-5 -0.530586-0.0931-0.71875-0.28125l-2.28125-2.28125-2.28125 2.28125c-0.188164 0.18819-0.45346 0.28125-0.71875 0.28125h-1v-1c-3e-6 -0.26529 0.09306-0.53058 0.28125-0.71875l2.28125-2.25-2.28125-2.28125c-0.210742-0.19463-0.30316-0.46925-0.28125-0.75z" color="#bebebe" display="inline" enable-background="new" fill="#dadbda" style="text-decoration-line:none;text-indent:0;text-transform:none"/>
    </g>
    <rect x="6366.73" y="-2748.41" width="107.181" height="107.181" rx="9.74372" ry="9.74373" color="#000000" display="inline" fill="#2c3133" stroke="#0d0e0e" stroke-width="3.24791"/>
    <rect x="9018.48" y="-2748.41" width="107.181" height="107.181" rx="9.74372" ry="9.74373" color="#000000" display="inline" fill="#2c3133" stroke="#0d0e0e" stroke-width="3.24791"/>
   </g>
   <rect x="8976.42" y="-2389.63" width="12.9916" height="607.359" rx="6.4958" ry="6.4958" display="inline" fill-opacity="0" opacity=".3" stroke-width="0"/>
   <rect x="9153.21" y="-2720.8" width="51.9665" height="51.9665" color="#bebebe" display="inline" fill="none"/>
   <g fill="#dadbda">
    <rect x="9055.83" y="-2711.06" width="32.4778" height="6.49651" color="#bebebe" display="inline"/>
    <path d="m9055.83-2698.07v6.498h32.4785v-6.498z" color="#bebebe" display="inline"/>
    <rect x="9055.83" y="-2685.08" width="32.4778" height="6.49651" color="#bebebe" display="inline"/>
   </g>
   <rect x="6394.34" y="-2720.8" width="51.9665" height="51.9665" color="#bebebe" display="inline" fill="none"/>
   <g transform="matrix(0 -2.97565 2.97565 0 4855.13 -2373.45)" display="inline" enable-background="new">
    <rect transform="scale(-1,1)" x="-116" y="518" width="16" height="16" color="#bebebe" display="inline" enable-background="new" fill="none"/>
    <path d="m110.511 519.956h-1c-0.0104-1.2e-4 -0.0208-4.6e-4 -0.0313 0-0.25495 0.0112-0.50987 0.12858-0.6875 0.3125l-5.2812 5.21875 5.28125 5.1875c0.18816 0.18819 0.45346 0.28125 0.71875 0.28125h1v-1c0-0.26529-0.0931-0.53058-0.28125-0.71875l-3.8125-3.75 3.8125-3.78125c0.21074-0.19463 0.30316-0.46925 0.28125-0.75z" color="#bebebe" display="inline" enable-background="new" fill="#dadbda" style="text-decoration-line:none;text-indent:0;text-transform:none"/>
   </g>
   <g fill="#e7e7e7" font-family="sans-serif" font-size="119.026px" letter-spacing="0px" stroke-width="2.97565px" word-spacing="0px">
    <text x="6358.7095" y="-1081.7872" style="line-height:74.3911972px" xml:space="preserve"><tspan x="6358.7095" y="-1081.7872" fill="#e7e7e7" font-family="Cantarell" font-size="43.6428px" stroke-width="2.97565px" style="font-feature-settings:normal;font-variant-caps:normal;font-variant-ligatures:normal;font-variant-numeric:normal">Focus Mode</tspan></text>
    <text x="6624.2271" y="-1083.1183" style="line-height:74.3911972px" xml:space="preserve"><tspan x="6624.2271" y="-1083.1183" fill="#e7e7e7" font-family="Cantarell" font-size="43.6428px" stroke-width="2.97565px" style="font-feature-settings:normal;font-variant-caps:normal;font-variant-ligatures:normal;font-variant-numeric:normal">Fullscreen</tspan></text>
    <text x="6859.0239" y="-1080.7937" style="line-height:74.3911972px" xml:space="preserve"><tspan x="6859.0239" y="-1080.7937" fill="#e7e7e7" font-family="Cantarell" font-size="43.6428px" stroke-width="2.97565px" style="font-feature-settings:normal;font-variant-caps:normal;font-variant-ligatures:normal;font-variant-numeric:normal">Preview</tspan></text>
   </g>
   <g>
    <path d="m9219.24-2698.07v6.498h32.4785v-6.498z" color="#bebebe" display="inline" fill="#dadbda"/>
    <text x="8644.4072" y="-1080.7937" fill="#e7e7e7" font-family="sans-serif" font-size="119.026px" letter-spacing="0px" stroke-width="2.97565px" word-spacing="0px" style="line-height:74.3911972px" xml:space="preserve"><tspan x="8644.4072" y="-1080.7937" fill="#e7e7e7" font-family="Cantarell" font-size="43.6428px" stroke-width="2.97565px" style="font-feature-settings:normal;font-variant-caps:normal;font-variant-ligatures:normal;font-variant-numeric:normal">Words:  37</tspan></text>
    <text x="8995.5264" y="-1080.7937" fill="#e7e7e7" font-family="sans-serif" font-size="119.026px" letter-spacing="0px" stroke-width="2.97565px" word-spacing="0px" style="line-height:74.3911972px" xml:space="preserve"><tspan x="8995.5264" y="-1080.7937" fill="#e7e7e7" font-family="Cantarell" font-size="43.6428px" stroke-width="2.97565px" style="font-feature-settings:normal;font-variant-caps:normal;font-variant-ligatures:normal;font-variant-numeric:normal">Characters:   4576</tspan></text>
   </g>
   <path transform="translate(-199.429 1598.7)" d="m9148.4-2732.19v74.7422z" display="inline" fill="none" stroke="#a7a7a7" stroke-linecap="round" stroke-width="3.24791px"/>
  </g>
  <g fill="#ececec" letter-spacing="0px" stroke-width="1px" word-spacing="0px">
   <text x="178.98633" y="161.24852" display="inline" font-family="'Fira Mono'" font-size="21.3333px" style="font-feature-settings:normal;font-variant-caps:normal;font-variant-ligatures:normal;font-variant-numeric:normal;line-height:25px" xml:space="preserve"><tspan x="178.98633" y="161.24852" font-family="'Fira Mono'" font-size="21.3333px" font-weight="bold" style="font-feature-settings:normal;font-variant-caps:normal;font-variant-ligatures:normal;font-variant-numeric:normal">It features a dark mode</tspan></text>
   <text x="187.00716" y="164.17882" display="inline" font-family="'Fira Mono'" font-size="26.6667px" font-weight="500" text-align="end" text-anchor="end" style="font-feature-settings:normal;font-variant-caps:normal;font-variant-ligatures:normal;font-variant-numeric:normal;line-height:25px" xml:space="preserve"><tspan x="202.99673" y="164.17882"><tspan x="187.00716" y="164.17882">#  </tspan></tspan></text>
   <text x="178.98633" y="202.4575" display="inline" font-family="sans-serif" font-size="40px" style="line-height:25px" xml:space="preserve"><tspan x="178.98633" y="202.4575"><tspan x="178.98633" y="202.4575" fill="#ececec" font-family="'Fira Mono'" font-size="18.6667px" style="font-feature-settings:normal;font-variant-caps:normal;font-variant-ligatures:normal;font-variant-numeric:normal">An alternative but not less elegant color scheme</tspan></tspan><tspan x="178.98633" y="233.6414"/><tspan x="178.98633" y="258.64139" font-family="'Fira Mono'" font-size="18.6667px" style="font-feature-settings:normal;font-variant-caps:normal;font-variant-ligatures:normal;font-variant-numeric:normal">Do you know CSS? You can edit it too!</tspan><tspan x="178.98633" y="289.82529"/><tspan x="178.98633" y="314.82529"/><tspan x="178.98633" y="339.82529" font-family="'Fira Mono'" font-size="18.6667px" style="font-feature-settings:normal;font-variant-caps:normal;font-variant-ligatures:normal;font-variant-numeric:normal">But wait, because there is more. Maybe the best</tspan><tspan x="178.98633" y="371.00919" font-family="'Fira Mono'" font-size="18.6667px" style="font-feature-settings:normal;font-variant-caps:normal;font-variant-ligatures:normal;font-variant-numeric:normal">feature of UberWriter it's his <tspan font-style="italic">*Inline Preview*</tspan></tspan><tspan x="178.98633" y="402.19308" font-family="'Fira Mono'" font-size="18.6667px" style="font-feature-settings:normal;font-variant-caps:normal;font-variant-ligatures:normal;font-variant-numeric:normal">It's simple, but highly effective:</tspan></text>
  </g>
  <text x="408.30063" y="33.125252" display="inline" fill="#ededeb" font-family="sans-serif" font-size="40px" letter-spacing="0px" stroke-width="1px" word-spacing="0px" style="line-height:25px" xml:space="preserve"><tspan x="408.30063" y="33.125252" fill="#ededeb" font-family="Cantarell" font-size="16px" font-weight="bold" style="font-feature-settings:normal;font-variant-caps:normal;font-variant-ligatures:normal;font-variant-numeric:normal">Dark Mode.md - UberWriter</tspan></text>
 </g>
 <g id="InlinePreview" class="sprite" transform="translate(-.585037 -.838695)" display="none">
  <g transform="matrix(.336061 0 0 .336061 -2130.84 932.668)">
   <g>
    <rect x="6344.11" y="-2771.05" width="3073.76" height="305.124" rx="33.7775" ry="29.2151" display="inline" fill="#f2f2f2" stroke="#919191" stroke-linecap="square" stroke-width="3.4904"/>
    <rect x="6344.11" y="-2618.37" width="3073.6" height="1565.25" display="inline" fill="#ededed" stroke="#919191" stroke-linecap="square" stroke-width="3.491"/>
    <path d="m9148.4-2732.19v74.7422z" display="inline" fill="none" stroke="#a7a7a7" stroke-linecap="round" stroke-width="3.24791px"/>
   </g>
   <g transform="matrix(3.24791 0 0 3.24791 9172.71 -5189.21)" display="inline" fill="#888a85">
    <path d="m45 764h1c0.01037-1.2e-4 0.02079-4.6e-4 0.03125 0 0.254951 0.0112 0.50987 0.12858 0.6875 0.3125l2.28125 2.28125 2.3125-2.28125c0.265625-0.2305 0.446672-0.3055 0.6875-0.3125h1v1c0 0.28647-0.03434 0.55065-0.25 0.75l-2.28125 2.28125 2.25 2.25c0.188188 0.18817 0.281242 0.45345 0.28125 0.71875v1h-1c-0.265301-1e-5 -0.530586-0.0931-0.71875-0.28125l-2.28125-2.28125-2.28125 2.28125c-0.188164 0.18819-0.45346 0.28125-0.71875 0.28125h-1v-1c-3e-6 -0.26529 0.09306-0.53058 0.28125-0.71875l2.28125-2.25-2.28125-2.28125c-0.210742-0.19463-0.30316-0.46925-0.28125-0.75z" color="#bebebe" display="inline" enable-background="new" fill="#888a85" style="text-decoration-line:none;text-indent:0;text-transform:none"/>
   </g>
   <g>
    <rect x="6366.73" y="-2748.41" width="107.181" height="107.181" rx="9.74372" ry="9.74373" color="#000000" display="inline" fill="#eaeaea" stroke="#919191" stroke-width="3.24791"/>
    <rect x="9018.48" y="-2748.41" width="107.181" height="107.181" rx="9.74372" ry="9.74373" color="#000000" display="inline" fill="#eaeaea" stroke="#919191" stroke-width="3.24791"/>
    <rect x="8976.42" y="-2389.63" width="12.9916" height="607.359" rx="6.4958" ry="6.4958" display="inline" opacity=".3" stroke-width="0"/>
   </g>
   <rect x="9153.21" y="-2720.8" width="51.9665" height="51.9665" color="#bebebe" display="inline" fill="none"/>
   <g fill="#2e3436">
    <rect x="9055.83" y="-2711.06" width="32.4778" height="6.49651" color="#bebebe" display="inline"/>
    <path d="m9055.83-2698.07v6.498h32.4785v-6.498z" color="#bebebe" display="inline"/>
    <rect x="9055.83" y="-2685.08" width="32.4778" height="6.49651" color="#bebebe" display="inline"/>
   </g>
   <rect x="6394.34" y="-2720.8" width="51.9665" height="51.9665" color="#bebebe" display="inline" fill="none"/>
   <g transform="matrix(0 -2.97565 2.97565 0 4855.13 -2373.45)" display="inline" enable-background="new">
    <rect transform="scale(-1,1)" x="-116" y="518" width="16" height="16" color="#bebebe" display="inline" enable-background="new" fill="none"/>
    <path d="m110.511 519.956h-1c-0.0104-1.2e-4 -0.0208-4.6e-4 -0.0313 0-0.25495 0.0112-0.50987 0.12858-0.6875 0.3125l-5.2812 5.21875 5.28125 5.1875c0.18816 0.18819 0.45346 0.28125 0.71875 0.28125h1v-1c0-0.26529-0.0931-0.53058-0.28125-0.71875l-3.8125-3.75 3.8125-3.78125c0.21074-0.19463 0.30316-0.46925 0.28125-0.75z" color="#bebebe" display="inline" enable-background="new" fill="#2e3436" style="text-decoration-line:none;text-indent:0;text-transform:none"/>
   </g>
   <g fill="#6f6f6f" font-family="sans-serif" font-size="119.026px" letter-spacing="0px" stroke-width="2.97565px" word-spacing="0px">
    <text x="6358.7095" y="-1081.7872" style="line-height:74.3911972px" xml:space="preserve"><tspan x="6358.7095" y="-1081.7872" fill="#6f6f6f" font-family="Cantarell" font-size="43.6428px" stroke-width="2.97565px" style="font-feature-settings:normal;font-variant-caps:normal;font-variant-ligatures:normal;font-variant-numeric:normal">Focus Mode</tspan></text>
    <text x="6624.2271" y="-1083.1183" style="line-height:74.3911972px" xml:space="preserve"><tspan x="6624.2271" y="-1083.1183" fill="#6f6f6f" font-family="Cantarell" font-size="43.6428px" stroke-width="2.97565px" style="font-feature-settings:normal;font-variant-caps:normal;font-variant-ligatures:normal;font-variant-numeric:normal">Fullscreen</tspan></text>
    <text x="6859.0239" y="-1080.7937" style="line-height:74.3911972px" xml:space="preserve"><tspan x="6859.0239" y="-1080.7937" fill="#6f6f6f" font-family="Cantarell" font-size="43.6428px" stroke-width="2.97565px" style="font-feature-settings:normal;font-variant-caps:normal;font-variant-ligatures:normal;font-variant-numeric:normal">Preview</tspan></text>
   </g>
   <g>
    <path d="m9219.24-2698.07v6.498h32.4785v-6.498z" color="#bebebe" display="inline" fill="#888a85"/>
    <text x="8644.4072" y="-1080.7937" fill="#6f6f6f" font-family="sans-serif" font-size="119.026px" letter-spacing="0px" stroke-width="2.97565px" word-spacing="0px" style="line-height:74.3911972px" xml:space="preserve"><tspan x="8644.4072" y="-1080.7937" fill="#6f6f6f" font-family="Cantarell" font-size="43.6428px" stroke-width="2.97565px" style="font-feature-settings:normal;font-variant-caps:normal;font-variant-ligatures:normal;font-variant-numeric:normal">Words:  37</tspan></text>
    <text x="8995.5264" y="-1080.7937" fill="#6f6f6f" font-family="sans-serif" font-size="119.026px" letter-spacing="0px" stroke-width="2.97565px" word-spacing="0px" style="line-height:74.3911972px" xml:space="preserve"><tspan x="8995.5264" y="-1080.7937" fill="#6f6f6f" font-family="Cantarell" font-size="43.6428px" stroke-width="2.97565px" style="font-feature-settings:normal;font-variant-caps:normal;font-variant-ligatures:normal;font-variant-numeric:normal">Characters:   4576</tspan></text>
   </g>
   <path transform="translate(-199.429 1598.7)" d="m9148.4-2732.19v74.7422z" display="inline" fill="none" stroke="#a7a7a7" stroke-linecap="round" stroke-width="3.24791px"/>
  </g>
  <g fill="#000000" letter-spacing="0px" stroke-width="1px" word-spacing="0px">
   <text x="178.98633" y="161.24852" display="inline" font-family="'Fira Mono'" font-size="21.3333px" style="font-feature-settings:normal;font-variant-caps:normal;font-variant-ligatures:normal;font-variant-numeric:normal;line-height:25px" xml:space="preserve"><tspan x="178.98633" y="161.24852" font-family="'Fira Mono'" font-size="21.3333px" font-weight="bold"><tspan x="178.98633" y="161.24852" style="font-feature-settings:normal;font-variant-caps:normal;font-variant-ligatures:normal;font-variant-numeric:normal">The inline preview is marvelous</tspan><tspan dx="12.791687" style="font-feature-settings:normal;font-variant-caps:normal;font-variant-ligatures:normal;font-variant-numeric:normal"/></tspan><tspan x="178.98633" y="161.24852"><tspan x="178.98633" font-family="'Fira Mono'" font-size="21.3333px" style="font-feature-settings:normal;font-variant-caps:normal;font-variant-ligatures:normal;font-variant-numeric:normal"/></tspan></text>
   <text x="189.00716" y="164.17882" display="inline" font-family="'Fira Mono'" font-size="26.6667px" font-weight="500" text-align="end" text-anchor="end" style="font-feature-settings:normal;font-variant-caps:normal;font-variant-ligatures:normal;font-variant-numeric:normal;line-height:25px" xml:space="preserve"><tspan x="204.99673" y="164.17882"><tspan x="189.00716" y="164.17882" font-family="'Fira Mono'" font-size="26.6667px" font-weight="bold" text-align="end" text-anchor="end" style="font-feature-settings:normal;font-variant-caps:normal;font-variant-ligatures:normal;font-variant-numeric:normal">#  </tspan></tspan></text>
   <text x="178.98633" y="202.4575" display="inline" font-family="sans-serif" font-size="40px" style="line-height:25px" xml:space="preserve"><tspan x="178.98633" y="202.4575"><tspan x="178.98633" y="202.4575" dx="0 0 0 0 0 0 0 0 0 0 0 0 0 0 0 0 0 0 0 0 0 0 0 0 0 0 0 0 0 0 0 0 0 0 0 0 0 0 0 0 0 0 11.192719" font-family="'Fira Mono'" font-size="18.6667px" style="font-feature-settings:normal;font-variant-caps:normal;font-variant-ligatures:normal;font-variant-numeric:normal">It instantly formats your markdown syntax:</tspan></tspan><tspan x="178.98633" y="233.6414" font-family="'Fira Mono'" font-size="21.3333px" style="font-feature-settings:normal;font-variant-caps:normal;font-variant-ligatures:normal;font-variant-numeric:normal"><tspan x="178.98633" font-family="'Fira Mono'" font-size="21.3333px" font-style="italic" style="font-feature-settings:normal;font-variant-caps:normal;font-variant-ligatures:normal;font-variant-numeric:normal">*Cursives*</tspan>, <tspan font-weight="bold">**bold text**</tspan>, <tspan font-style="italic" font-weight="bold">***both***</tspan></tspan><tspan x="178.98633" y="264.08084"/><tspan x="178.98633" y="289.08084"><tspan x="178.98633" dx="0 0 0 0 0 0 0 0 0 0 0 0 0 0 0 0 0 0 0 0 0 0 0 0 0 0 0 0 0 0 0 0 11.192719" font-family="'Fira Mono'" font-size="18.6667px" font-weight="bold" style="font-feature-settings:normal;font-variant-caps:normal;font-variant-ligatures:normal;font-variant-numeric:normal">Not only that, it also formats: </tspan></tspan><tspan x="178.98633" y="320.26474"/><tspan x="178.98633" y="345.26474"><tspan x="178.98633" dx="0 0 0 0 0 0 0 0 0 0 0 0 0 0 0 0 0 0 0 0 0 11.192719" font-family="'Fira Mono'" font-size="18.6667px" style="font-feature-settings:normal;font-variant-caps:normal;font-variant-ligatures:normal;font-variant-numeric:normal">Lists (like this one)</tspan></tspan><tspan x="178.98633" y="376.44864"><tspan x="178.98633" dx="0 0 0 0 0 0 0 11.192703" font-family="'Fira Mono'" font-size="18.6667px" style="font-feature-settings:normal;font-variant-caps:normal;font-variant-ligatures:normal;font-variant-numeric:normal">Headers</tspan></tspan><tspan x="178.98633" y="407.63254"><tspan x="178.98633" font-family="'Fira Mono'" font-size="18.6667px" style="font-feature-settings:normal;font-variant-caps:normal;font-variant-ligatures:normal;font-variant-numeric:normal">Unordered lists...</tspan></tspan></text>
   <text x="139.11584" y="290.90057" display="inline" font-family="'Fira Mono'" font-size="21.3333px" style="line-height:25px" xml:space="preserve"><tspan x="139.11584" y="290.90057" font-weight="bold" style="font-feature-settings:normal;font-variant-caps:normal;font-variant-ligatures:normal;font-variant-numeric:normal"><tspan x="139.11584" y="290.90057" dx="0 0 0 0" font-family="'Fira Mono'" font-size="21.3333px" font-weight="bold" style="font-feature-settings:normal;font-variant-caps:normal;font-variant-ligatures:normal;font-variant-numeric:normal">## </tspan></tspan><tspan x="139.11584" y="346.34003" style="font-feature-settings:normal;font-variant-caps:normal;font-variant-ligatures:normal;font-variant-numeric:normal"><tspan x="139.11584" y="346.34003" dx="0 0 0 0" font-family="'Fira Mono'" font-size="21.3333px" style="font-feature-settings:normal;font-variant-caps:normal;font-variant-ligatures:normal;font-variant-numeric:normal"> 1.</tspan></tspan><tspan x="151.9075" y="376.77945" style="font-feature-settings:normal;font-variant-caps:normal;font-variant-ligatures:normal;font-variant-numeric:normal"><tspan x="151.9075" y="376.77945" dx="0 0 0" font-family="'Fira Mono'" font-size="21.3333px" style="font-feature-settings:normal;font-variant-caps:normal;font-variant-ligatures:normal;font-variant-numeric:normal">2.</tspan></tspan><tspan x="151.9075" y="407.21893" style="font-feature-settings:normal;font-variant-caps:normal;font-variant-ligatures:normal;font-variant-numeric:normal"><tspan x="151.9075" y="407.21893" font-family="'Fira Mono'" font-size="21.3333px" style="font-feature-settings:normal;font-variant-caps:normal;font-variant-ligatures:normal;font-variant-numeric:normal">3.</tspan></tspan></text>
  </g>
  <text x="408.30063" y="33.125252" display="inline" fill="#2e3436" font-family="sans-serif" font-size="40px" letter-spacing="0px" stroke-width="1px" word-spacing="0px" style="line-height:25px" xml:space="preserve"><tspan x="408.30063" y="33.125252" fill="#2e3436" font-family="Cantarell" font-size="16px" font-weight="bold" style="font-feature-settings:normal;font-variant-caps:normal;font-variant-ligatures:normal;font-variant-numeric:normal">UberInline.md - UberWriter</tspan></text>
 </g>
</svg>
